# xmcd
#
# Track frame offsets: 
#        150
#        10055
#        21030
#        34010
#        46397
#        55827
#        70540
#        83347
#        106720
#        117027
#        126685
#
# Disc length: 1891 seconds
#
# Revision: 2
# Processed by: cddbd v1.4PL0 Copyright (c) Steve Scherf et al.
# Submitted via: ExactAudioCopy v0.90b3
#
DISCID=7c07610b
DTITLE=George Strait - Strait Out Of The Box (Sampler)
DYEAR=1900
DGENRE=Country
TTITLE0=(That Don't Change) The Way I Feel About You
TTITLE1=Unwound
TTITLE2=Amarillo By Morning
TTITLE3=I Thought I Heard You Calling My Name
TTITLE4=Right Or Wrong
TTITLE5=Does Fort Worth Ever Cross Your Mind
TTITLE6=The Chair
TTITLE7=Milk Cow Blues
TTITLE8=Heartland
TTITLE9=Fly Me To The Moon (With Frank Sinatra)
TTITLE10=Check Yes Or No
EXTD=
EXTT0=
EXTT1=
EXTT2=
EXTT3=
EXTT4=
EXTT5=
EXTT6=
EXTT7=
EXTT8=
EXTT9=
EXTT10=
PLAYORDER=
